<svg width="34" height="34" viewBox="0 0 34 34" fill="none" xmlns="http://www.w3.org/2000/svg">
<path d="M24.437 32.8409C24.2159 33.0607 23.9168 33.1841 23.6051 33.1841C23.2933 33.1841 22.9942 33.0607 22.7731 32.8409L17.7045 27.7783V32.009C17.7045 32.3219 17.5802 32.6221 17.3588 32.8434C17.1375 33.0647 16.8374 33.1891 16.5244 33.1891C16.2114 33.1891 15.9112 33.0647 15.6899 32.8434C15.4686 32.6221 15.3443 32.3219 15.3443 32.009V27.7724L10.2757 32.8409C10.1699 32.9645 10.0397 33.0648 9.89329 33.1356C9.74688 33.2065 9.5874 33.2463 9.42488 33.2526C9.26236 33.2588 9.10029 33.2315 8.94885 33.1721C8.79741 33.1128 8.65987 33.0228 8.54487 32.9078C8.42986 32.7928 8.33987 32.6552 8.28054 32.5038C8.22121 32.3524 8.19382 32.1903 8.2001 32.0278C8.20638 31.8653 8.24618 31.7058 8.31702 31.5594C8.38785 31.413 8.48818 31.2828 8.61172 31.177L13.6803 26.1084H19.3684L24.437 31.177C24.6568 31.3981 24.7802 31.6972 24.7802 32.009C24.7802 32.3207 24.6568 32.6198 24.437 32.8409Z" fill="#FFCFC9"/>
<path d="M28.3218 7.22656V22.568C28.3218 22.881 28.1975 23.1812 27.9762 23.4025C27.7549 23.6238 27.4547 23.7481 27.1417 23.7481H5.89971C5.58673 23.7481 5.28656 23.6238 5.06525 23.4025C4.84393 23.1812 4.7196 22.881 4.7196 22.568V7.22656H2.35938V22.568C2.35938 23.507 2.73237 24.4075 3.39632 25.0714C4.06026 25.7354 4.96076 26.1084 5.89971 26.1084H27.1417C28.0807 26.1084 28.9812 25.7354 29.6451 25.0714C30.3091 24.4075 30.6821 23.507 30.6821 22.568V7.22656H28.3218ZM15.9779 23.8839L16.0664 23.8366L15.9779 23.8839Z" fill="#FFCFC9"/>
<path d="M29.502 4.8667H3.53949C3.2265 4.8667 2.92634 4.99103 2.70502 5.21235C2.48371 5.43366 2.35938 5.73383 2.35938 6.04681V7.22692H30.6821V6.04681C30.6821 5.73383 30.5577 5.43366 30.3364 5.21235C30.1151 4.99103 29.8149 4.8667 29.502 4.8667Z" fill="#FFCFC9"/>
<path d="M33.0432 3.68633V6.04656C33.0432 6.35954 32.9188 6.65971 32.6975 6.88102C32.4762 7.10234 32.176 7.22667 31.863 7.22667H30.6829V6.04656C30.6829 5.73357 30.5586 5.43341 30.3373 5.21209C30.116 4.99078 29.8158 4.86645 29.5028 4.86645H30.6829V3.68633C30.6829 3.37335 30.5586 3.07318 30.3373 2.85187C30.116 2.63055 29.8158 2.50622 29.5028 2.50622H3.54034C3.22735 2.50622 2.92719 2.63055 2.70587 2.85187C2.48456 3.07318 2.36023 3.37335 2.36023 3.68633V4.86645H3.54034C3.22735 4.86645 2.92719 4.99078 2.70587 5.21209C2.48456 5.43341 2.36023 5.73357 2.36023 6.04656V7.22667H1.18011C0.867127 7.22667 0.566961 7.10234 0.345647 6.88102C0.124333 6.65971 0 6.35954 0 6.04656V3.68633C0 2.74738 0.372999 1.84688 1.03694 1.18294C1.70088 0.518995 2.60138 0.145996 3.54034 0.145996H29.5028C30.4418 0.145996 31.3423 0.518995 32.0062 1.18294C32.6702 1.84688 33.0432 2.74738 33.0432 3.68633Z" fill="#FFCFC9"/>
<path d="M14.1606 21.3883C13.8476 21.3883 13.5474 21.264 13.3261 21.0426C13.1048 20.8213 12.9805 20.5212 12.9805 20.2082V15.4877C12.9805 15.1747 13.1048 14.8746 13.3261 14.6533C13.5474 14.432 13.8476 14.3076 14.1606 14.3076C14.4736 14.3076 14.7737 14.432 14.995 14.6533C15.2164 14.8746 15.3407 15.1747 15.3407 15.4877V20.2082C15.3407 20.5212 15.2164 20.8213 14.995 21.0426C14.7737 21.264 14.4736 21.3883 14.1606 21.3883Z" fill="#FFCFC9"/>
<path d="M9.44183 21.3879C9.12885 21.3879 8.82868 21.2636 8.60737 21.0423C8.38605 20.821 8.26172 20.5208 8.26172 20.2078V17.8476C8.26172 17.5346 8.38605 17.2344 8.60737 17.0131C8.82868 16.7918 9.12885 16.6675 9.44183 16.6675C9.75482 16.6675 10.055 16.7918 10.2763 17.0131C10.4976 17.2344 10.6219 17.5346 10.6219 17.8476V20.2078C10.6219 20.5208 10.4976 20.821 10.2763 21.0423C10.055 21.2636 9.75482 21.3879 9.44183 21.3879Z" fill="#FFCFC9"/>
<path d="M23.602 21.388C23.289 21.388 22.9888 21.2637 22.7675 21.0424C22.5462 20.8211 22.4219 20.5209 22.4219 20.2079V10.767C22.4219 10.454 22.5462 10.1539 22.7675 9.93256C22.9888 9.71125 23.289 9.58691 23.602 9.58691C23.915 9.58691 24.2151 9.71125 24.4365 9.93256C24.6578 10.1539 24.7821 10.454 24.7821 10.767V20.2079C24.7821 20.5209 24.6578 20.8211 24.4365 21.0424C24.2151 21.2637 23.915 21.388 23.602 21.388Z" fill="#FFCFC9"/>
<path d="M18.8832 21.3882C18.5703 21.3882 18.2701 21.2638 18.0488 21.0425C17.8275 20.8212 17.7031 20.521 17.7031 20.2081V13.1274C17.7031 12.8144 17.8275 12.5142 18.0488 12.2929C18.2701 12.0716 18.5703 11.9473 18.8832 11.9473C19.1962 11.9473 19.4964 12.0716 19.7177 12.2929C19.939 12.5142 20.0634 12.8144 20.0634 13.1274V20.2081C20.0634 20.521 19.939 20.8212 19.7177 21.0425C19.4964 21.2638 19.1962 21.3882 18.8832 21.3882Z" fill="#FFCFC9"/>
</svg>
